<?xml version="1.0" encoding="UTF-8"?>
<svg version="1.1" xmlns="http://www.w3.org/2000/svg" width="75" height="79">
<path d="M0 0 C5.38713734 3.0363865 6.93728553 6.5089427 8.5546875 12.20703125 C8.70164063 12.79871094 8.84859375 13.39039063 9 14 C10.5159375 14.061875 10.5159375 14.061875 12.0625 14.125 C16.7426251 14.78269579 20.02575096 17.41241711 23 21 C24.13710056 24.01859169 24.05783531 24.82649406 23 28 C19.3984473 33.40232905 14.10521431 35.21310801 8 37 C8.474375 37.7425 8.94875 38.485 9.4375 39.25 C12.26175005 44.22068009 12.71751583 49.36093195 12 55 C9.30848901 59.65838441 5.1197411 62.75210356 0.125 64.75 C-12.7723108 66.26733068 -23.54990193 61.28572161 -34 54 C-39.01662885 48.98337115 -41.39611357 44.29803343 -42.02734375 37.30859375 C-41.96783404 32.28427383 -39.77634856 28.91936013 -36.625 25.1875 C-31.47533121 20.89610934 -27.47051118 20.78066064 -21 21 C-21.061875 19.824375 -21.12375 18.64875 -21.1875 17.4375 C-21.16690442 11.60894956 -19.32802542 7.52722923 -15.5 3.125 C-10.9288462 -0.76048073 -5.75776094 -0.76232037 0 0 Z " fill="#762F01" transform="translate(48,4)"/>
<path d="M0 0 C5.38713734 3.0363865 6.93728553 6.5089427 8.5546875 12.20703125 C8.70164063 12.79871094 8.84859375 13.39039063 9 14 C10.5159375 14.061875 10.5159375 14.061875 12.0625 14.125 C16.7426251 14.78269579 20.02575096 17.41241711 23 21 C24.13710056 24.01859169 24.05783531 24.82649406 23 28 C19.3984473 33.40232905 14.10521431 35.21310801 8 37 C8.474375 37.7425 8.94875 38.485 9.4375 39.25 C12.26175005 44.22068009 12.71751583 49.36093195 12 55 C9.30848901 59.65838441 5.1197411 62.75210356 0.125 64.75 C-7.11746646 65.60205488 -13.22710937 64.7444055 -20 62 C-20.66 61.34 -21.32 60.68 -22 60 C-16.25 60.875 -16.25 60.875 -14 62 C-11.4884113 62.09792892 -9.01090234 62.13907983 -6.5 62.125 C-5.81035156 62.12886719 -5.12070312 62.13273437 -4.41015625 62.13671875 C-0.57833786 62.19040866 -0.57833786 62.19040866 3 61 C-1.455 61.495 -1.455 61.495 -6 62 C-4.36828607 58.73657214 -3.33620432 57.13568314 -0.9375 54.625 C1.8149512 51.5243068 2.79348725 49.23351145 3 45 C2.01 45.495 2.01 45.495 1 46 C1.20238281 45.33613281 1.40476563 44.67226563 1.61328125 43.98828125 C2.32356624 41.27015156 2.87559459 38.80984625 3 36 C0.83200792 32.82718148 0.83200792 32.82718148 -2 31 C-1.67 30.34 -1.34 29.68 -1 29 C-1.721875 28.9175 -2.44375 28.835 -3.1875 28.75 C-6.56679596 27.84885441 -8.37724069 26.26833237 -11 24 C-14.30994713 22.34502644 -17.99123 22.89915665 -21.625 22.9375 C-22.42679688 22.94201172 -23.22859375 22.94652344 -24.0546875 22.95117188 C-26.03649006 22.96296832 -28.01825433 22.98090395 -30 23 C-30 23.66 -30 24.32 -30 25 C-33.46153846 28 -33.46153846 28 -36 28 C-37.10514766 31.31544299 -37.32107631 34.20410111 -37.5625 37.6875 C-37.64628906 38.86699219 -37.73007812 40.04648437 -37.81640625 41.26171875 C-37.87699219 42.16535156 -37.93757813 43.06898437 -38 44 C-38.99 44 -39.98 44 -41 44 C-42.16925104 37.78747339 -42.27656282 33.67937555 -39 28 C-36.01162712 24.46113738 -33.51832268 22.15584999 -29 21 C-26.3084559 20.85437541 -23.69990866 20.90847767 -21 21 C-21.061875 19.824375 -21.12375 18.64875 -21.1875 17.4375 C-21.16690442 11.60894956 -19.32802542 7.52722923 -15.5 3.125 C-10.9288462 -0.76048073 -5.75776094 -0.76232037 0 0 Z " fill="#8A6C45" transform="translate(48,4)"/>
<path d="M0 0 C1.02770508 -0.01160156 1.02770508 -0.01160156 2.07617188 -0.0234375 C7.1841133 -0.0033867 7.1841133 -0.0033867 9.4375 2.25 C9.66796875 5.18359375 9.66796875 5.18359375 9.625 8.6875 C9.61855469 9.84121094 9.61210938 10.99492188 9.60546875 12.18359375 C9.4375 15.25 9.4375 15.25 8.4375 18.25 C7.7775 18.25 7.1175 18.25 6.4375 18.25 C6.210625 18.806875 5.98375 19.36375 5.75 19.9375 C4.07325448 22.89176591 1.89173315 24.91847851 -0.5625 27.25 C-1.2225 27.91 -1.8825 28.57 -2.5625 29.25 C-5.1875 29.875 -5.1875 29.875 -7.5625 30.25 C-7.2325 30.91 -6.9025 31.57 -6.5625 32.25 C-11.43876457 30.85678155 -13.63827973 28.31141704 -16.5625 24.25 C-17.375 21.875 -17.375 21.875 -17.5625 20.25 C-16.9025 20.25 -16.2425 20.25 -15.5625 20.25 C-15.62050781 19.36957031 -15.67851562 18.48914063 -15.73828125 17.58203125 C-16.11030479 8.00508228 -16.11030479 8.00508228 -13.25 4.0625 C-8.46927377 0.83828929 -5.69782773 -0.06468679 0 0 Z " fill="#DA9801" transform="translate(25.5625,27.75)"/>
<path d="M0 0 C2.21875 1.19921875 2.21875 1.19921875 4 3 C5.42113605 7.87690403 5.69813854 13.18569119 3.75 17.9375 C2.30290734 20.46991215 0.87369821 22.76940689 -1 25 C-5.54769788 24.46497672 -8.26178152 22.54517003 -12 20 C-14.11005036 19.36647559 -14.11005036 19.36647559 -16 19 C-16.2632058 12.41985488 -16.48186468 6.85790478 -11.9375 1.625 C-8.00067212 -0.55281968 -4.41594626 -0.87686947 0 0 Z " fill="#DFE4EC" transform="translate(47,7)"/>
<path d="M0 0 C5.38713734 3.0363865 6.93728553 6.5089427 8.5546875 12.20703125 C8.70164063 12.79871094 8.84859375 13.39039063 9 14 C11.31 14.33 13.62 14.66 16 15 C16 15.33 16 15.66 16 16 C12.04 16.33 8.08 16.66 4 17 C3.57682292 14.20052083 3.15364583 11.40104167 2.73046875 8.6015625 C2.21227702 5.6712636 2.21227702 5.6712636 -1 4 C-3.11056475 3.60940181 -3.11056475 3.60940181 -5.375 3.625 C-6.12523437 3.59664063 -6.87546875 3.56828125 -7.6484375 3.5390625 C-11.06702049 4.2091502 -12.61606472 5.47392207 -15 8 C-16.0301231 11.47473549 -16.0301231 11.47473549 -16.3125 15.25 C-16.45300781 16.51328125 -16.59351562 17.7765625 -16.73828125 19.078125 C-16.82464844 20.04234375 -16.91101563 21.0065625 -17 22 C-23.435 22.495 -23.435 22.495 -30 23 C-30 23.66 -30 24.32 -30 25 C-33.46153846 28 -33.46153846 28 -36 28 C-37.10514766 31.31544299 -37.32107631 34.20410111 -37.5625 37.6875 C-37.64628906 38.86699219 -37.73007812 40.04648437 -37.81640625 41.26171875 C-37.87699219 42.16535156 -37.93757813 43.06898437 -38 44 C-38.99 44 -39.98 44 -41 44 C-42.16925104 37.78747339 -42.27656282 33.67937555 -39 28 C-36.01162712 24.46113738 -33.51832268 22.15584999 -29 21 C-26.3084559 20.85437541 -23.69990866 20.90847767 -21 21 C-21.061875 19.824375 -21.12375 18.64875 -21.1875 17.4375 C-21.16690442 11.60894956 -19.32802542 7.52722923 -15.5 3.125 C-10.9288462 -0.76048073 -5.75776094 -0.76232037 0 0 Z " fill="#B3AAA4" transform="translate(48,4)"/>
<path d="M0 0 C4.59291877 -0.36022892 7.94978453 -0.57869016 12.0625 1.6875 C14 4 14 4 14.625 6.5 C14 9 14 9 12.125 11.1875 C6.37503202 14.52248143 0.47120321 15.60624508 -6 14 C-5.45865928 10.10234681 -4.39582337 8.06665391 -2 5 C-1.28837557 3.35202764 -0.60968047 1.68834592 0 0 Z " fill="#DDD6D7" transform="translate(54,22)"/>
<path d="M0 0 C0.66 0 1.32 0 2 0 C3.34422204 4.03266611 3.45703395 7.78005323 3 12 C1.5 14.5625 1.5 14.5625 0 16 C1.32 15.34 2.64 14.68 4 14 C2.49235345 18.22141034 -0.21292869 19.80349864 -4 22 C-11.07321161 24.82928465 -19.23444254 22.74143406 -26 20 C-26.66 19.34 -27.32 18.68 -28 18 C-22.25 18.875 -22.25 18.875 -20 20 C-17.4884113 20.09792892 -15.01090234 20.13907983 -12.5 20.125 C-11.81035156 20.12886719 -11.12070312 20.13273437 -10.41015625 20.13671875 C-6.57833786 20.19040866 -6.57833786 20.19040866 -3 19 C-5.97 19.33 -8.94 19.66 -12 20 C-10.39763425 16.7952685 -9.45905303 15.26144165 -7.125 12.8125 C-3.70650154 8.95831056 -1.83979217 4.77263734 0 0 Z " fill="#CD8E00" transform="translate(54,46)"/>
<path d="M0 0 C5.38713734 3.0363865 6.93728553 6.5089427 8.5546875 12.20703125 C8.77511719 13.09455078 8.77511719 13.09455078 9 14 C11.31 14.33 13.62 14.66 16 15 C16 15.33 16 15.66 16 16 C12.04 16.33 8.08 16.66 4 17 C3.36523438 12.80078125 3.36523438 12.80078125 2.73046875 8.6015625 C2.21227702 5.6712636 2.21227702 5.6712636 -1 4 C-3.14943335 3.72122601 -3.14943335 3.72122601 -5.4375 3.8125 C-6.19933594 3.81894531 -6.96117187 3.82539062 -7.74609375 3.83203125 C-9.93937857 3.99548229 -11.88870807 4.39883487 -14 5 C-13.6875 3.0625 -13.6875 3.0625 -13 1 C-8.62916548 -0.45694484 -4.56381589 -0.60424354 0 0 Z " fill="#9C8E90" transform="translate(48,4)"/>
<path d="M0 0 C1.7015625 0.2475 1.7015625 0.2475 3.4375 0.5 C5.4375 3.5 5.4375 3.5 5.125 6.0625 C4.4375 8.5 4.4375 8.5 3.4375 10.5 C2.715625 10.479375 1.99375 10.45875 1.25 10.4375 C-1.48175138 10.49820559 -3.90506091 10.89258535 -6.5625 11.5 C-6.79562509 8.15854032 -6.66751612 5.78416126 -5.5 2.625 C-3.5625 0.5 -3.5625 0.5 0 0 Z " fill="#DBE6ED" transform="translate(59.5625,23.5)"/>
<path d="M0 0 C3 2 3 2 3.875 3.75 C4.07099756 7.27795606 2.94547212 9.08179182 1 12 C-2.87934562 15.00966864 -7.31560943 16.62895886 -12 18 C-12 18.99 -12 19.98 -12 21 C-12.66 20.34 -13.32 19.68 -14 19 C-14 17.68 -14 16.36 -14 15 C-14.99 14.67 -15.98 14.34 -17 14 C-16.18015625 13.81824219 -15.3603125 13.63648438 -14.515625 13.44921875 C-13.43796875 13.19785156 -12.3603125 12.94648437 -11.25 12.6875 C-10.18265625 12.44386719 -9.1153125 12.20023438 -8.015625 11.94921875 C-3.92777704 10.66249977 -1.68869158 9.31179349 0.3125 5.5 C1.27640275 2.90177817 1.27640275 2.90177817 0 0 Z " fill="#A8999A" transform="translate(68,23)"/>
<path d="M0 0 C1.01416992 0.00483398 1.01416992 0.00483398 2.04882812 0.00976562 C4.02302734 -0.01537109 4.02302734 -0.01537109 6.03710938 -0.04101562 C9.82494821 0.33096855 11.70450279 1.09970895 14.73632812 3.32226562 C13.74632813 3.98226563 12.75632812 4.64226563 11.73632812 5.32226562 C11.51547173 8.27290711 11.45571823 11.00594793 11.54882812 13.94726562 C11.56236328 14.7490625 11.57589844 15.55085938 11.58984375 16.37695312 C11.62523761 18.3590094 11.67904579 20.34072114 11.73632812 22.32226562 C10.06966146 22.32226562 8.40299479 22.32226562 6.73632812 22.32226562 C6.73632812 21.66226563 6.73632812 21.00226562 6.73632812 20.32226562 C7.39632812 20.32226562 8.05632813 20.32226562 8.73632812 20.32226562 C8.76317491 17.67636549 8.78309169 15.03073467 8.79882812 12.38476562 C8.80720703 11.63001953 8.81558594 10.87527344 8.82421875 10.09765625 C8.83285253 8.17232249 8.78857145 6.24690982 8.73632812 4.32226562 C6.74016259 2.32610009 2.91930849 2.91243135 0.17382812 2.75976562 C-0.53708984 2.71658203 -1.24800781 2.67339844 -1.98046875 2.62890625 C-3.74129099 2.52254786 -5.50245507 2.42187716 -7.26367188 2.32226562 C-4.80782949 -0.13357676 -3.36212682 0.0367994 0 0 Z " fill="#723F0A" transform="translate(25.263671875,25.677734375)"/>
<path d="M0 0 C2.95409701 1.37154504 5.44008376 2.98863724 8 5 C7.51123254 10.74301765 6.14630284 16.09576288 3 21 C0.86328125 22.26171875 0.86328125 22.26171875 -1 23 C0.875 18.25 0.875 18.25 2 16 C2.07116382 13.62597499 2.08409085 11.24999323 2.0625 8.875 C2.05347656 7.59367187 2.04445312 6.31234375 2.03515625 4.9921875 C2.02355469 4.00476562 2.01195312 3.01734375 2 2 C1.34 2 0.68 2 0 2 C0 1.34 0 0.68 0 0 Z " fill="#CB8A00" transform="translate(44,35)"/>
<path d="M0 0 C0.928125 0.0825 1.85625 0.165 2.8125 0.25 C1.52284824 1.62562854 0.18560707 2.95766393 -1.1875 4.25 C-1.8475 4.25 -2.5075 4.25 -3.1875 4.25 C-4.29264766 7.56544299 -4.50857631 10.45410111 -4.75 13.9375 C-4.83378906 15.11699219 -4.91757813 16.29648437 -5.00390625 17.51171875 C-5.06449219 18.41535156 -5.12507812 19.31898437 -5.1875 20.25 C-6.1775 20.25 -7.1675 20.25 -8.1875 20.25 C-9.3892888 13.86459202 -9.33851181 9.98934294 -6.1875 4.25 C-5.754375 3.445625 -5.32125 2.64125 -4.875 1.8125 C-3.1875 0.25 -3.1875 0.25 0 0 Z " fill="#A4804A" transform="translate(15.1875,27.75)"/>
<path d="M0 0 C2.875 2.75 2.875 2.75 4 6 C3.75 8.375 3.75 8.375 3 10 C2.566875 9.21625 2.13375 8.4325 1.6875 7.625 C0.10779753 4.78301625 0.10779753 4.78301625 -3 3 C-5.28648848 2.75892674 -5.28648848 2.75892674 -7.6875 2.875 C-8.89986328 2.90207031 -8.89986328 2.90207031 -10.13671875 2.9296875 C-10.75160156 2.95289063 -11.36648437 2.97609375 -12 3 C-12.33 4.32 -12.66 5.64 -13 7 C-13.99 7 -14.98 7 -16 7 C-16.1875 4.625 -16.1875 4.625 -16 2 C-11.13149991 -1.24566673 -5.68035847 -0.84153459 0 0 Z " fill="#705C5C" transform="translate(66,20)"/>
<path d="M0 0 C0 0.99 0 1.98 0 3 C-1.390625 4.3515625 -1.390625 4.3515625 -3.25 5.625 C-3.85328125 6.05039063 -4.4565625 6.47578125 -5.078125 6.9140625 C-10.19007884 9.80252422 -16.07413537 9.6587473 -21.671875 8.3984375 C-28.57742915 6.42257085 -28.57742915 6.42257085 -31 4 C-25.25 4.875 -25.25 4.875 -23 6 C-20.4884113 6.09792892 -18.01090234 6.13907983 -15.5 6.125 C-14.81035156 6.12886719 -14.12070312 6.13273437 -13.41015625 6.13671875 C-9.57833786 6.19040866 -9.57833786 6.19040866 -6 5 C-6.33 4.34 -6.66 3.68 -7 3 C-5.5459375 2.5359375 -5.5459375 2.5359375 -4.0625 2.0625 C-1.15934208 1.30476658 -1.15934208 1.30476658 0 0 Z " fill="#BFA998" transform="translate(57,60)"/>
<path d="M0 0 C1.65 0 3.3 0 5 0 C4.01 0.66 3.02 1.32 2 2 C1.67 2.99 1.34 3.98 1 5 C1.66 5 2.32 5 3 5 C3 5.66 3 6.32 3 7 C3.9075 6.649375 4.815 6.29875 5.75 5.9375 C8.87758436 5.03531221 10.05208081 4.86618493 13 6 C9.31912647 8.45391569 6.55644412 8.22802759 2.3125 8.125 C1.2596582 8.11146484 1.2596582 8.11146484 0.18554688 8.09765625 C-1.54311525 8.07413704 -3.27160145 8.03826713 -5 8 C-5.33 7.01 -5.66 6.02 -6 5 C-4.35 4.67 -2.7 4.34 -1 4 C-0.67 2.68 -0.34 1.36 0 0 Z " fill="#612E0A" transform="translate(39,59)"/>
<path d="M0 0 C0 4.61538462 0 4.61538462 -1 7 C-2.64551962 7.71727778 -4.31422289 8.38325228 -6 9 C-6.99 10.485 -6.99 10.485 -8 12 C-7.0409375 12.1546875 -7.0409375 12.1546875 -6.0625 12.3125 C-5.0415625 12.6528125 -5.0415625 12.6528125 -4 13 C-3.67 13.99 -3.34 14.98 -3 16 C-6.32104626 15.44649229 -9.16244492 14.85908781 -12 13 C-13.25 10.875 -13.25 10.875 -14 9 C-12.948125 8.773125 -11.89625 8.54625 -10.8125 8.3125 C-6.8227134 7.18986774 -4.73193526 5.12221172 -2 2 C-1.34 1.34 -0.68 0.68 0 0 Z " fill="#7C4706" transform="translate(31,48)"/>
<path d="M0 0 C3.8665284 3.222107 4.88059018 6.14922412 6 11 C8.31 11.33 10.62 11.66 13 12 C13 12.33 13 12.66 13 13 C7.06 13.495 7.06 13.495 1 14 C0 4.25 0 4.25 0 0 Z " fill="#B8ADB0" transform="translate(51,7)"/>
<path d="M0 0 C0.33 0 0.66 0 1 0 C0.87379509 6.05783583 -1.12699243 8.91926698 -5.11328125 13.3984375 C-7.11490251 15.09753629 -8.43412026 15.60350644 -11 16 C-10.6875 14.0625 -10.6875 14.0625 -10 12 C-9.01 11.67 -8.02 11.34 -7 11 C-5.35341363 8.71633217 -5.35341363 8.71633217 -3.875 6 C-1.04635762 1.04635762 -1.04635762 1.04635762 0 0 Z " fill="#5A3100" transform="translate(51,48)"/>
<path d="M0 0 C0.66 0.33 1.32 0.66 2 1 C2 1.66 2 2.32 2 3 C0.80375 2.938125 -0.3925 2.87625 -1.625 2.8125 C-5.76792517 2.78316956 -8.34460831 4.04479049 -12 6 C-12.99 5.67 -13.98 5.34 -15 5 C-10.21637997 0.09372305 -6.81375058 -0.95392508 0 0 Z " fill="#DED3D8" transform="translate(47,7)"/>
<path d="M0 0 C0.99 0.33 1.98 0.66 3 1 C2.525625 1.5775 2.05125 2.155 1.5625 2.75 C0.0515133 4.92582084 -0.54036151 6.42602448 -1 9 C0.98 9.66 2.96 10.32 5 11 C4.67 11.99 4.34 12.98 4 14 C-1.875 10.25 -1.875 10.25 -3 8 C-2.67 7.34 -2.34 6.68 -2 6 C-2.99 5.67 -3.98 5.34 -5 5 C-3.35 3.35 -1.7 1.7 0 0 Z " fill="#715955" transform="translate(49,27)"/>
<path d="M0 0 C1.03447266 0.01160156 1.03447266 0.01160156 2.08984375 0.0234375 C2.77949219 0.01570313 3.46914063 0.00796875 4.1796875 0 C9.33651082 0.02010457 9.33651082 0.02010457 11.58984375 2.2734375 C10.92984375 2.2734375 10.26984375 2.2734375 9.58984375 2.2734375 C9.25984375 2.9334375 8.92984375 3.5934375 8.58984375 4.2734375 C8.25984375 3.9434375 7.92984375 3.6134375 7.58984375 3.2734375 C5.06388116 3.03690227 2.55877168 2.85170058 0.02734375 2.7109375 C-0.68357422 2.66775391 -1.39449219 2.62457031 -2.12695312 2.58007812 C-3.88777537 2.47371973 -5.64893945 2.37304904 -7.41015625 2.2734375 C-4.91805186 -0.21866689 -3.40654837 0.01328089 0 0 Z " fill="#825D24" transform="translate(25.41015625,25.7265625)"/>
<path d="M0 0 C1.67542976 0.28604898 3.34385343 0.61781233 5 1 C5.33 1.99 5.66 2.98 6 4 C4.35 4.33 2.7 4.66 1 5 C1 6.98 1 8.96 1 11 C0.34 11 -0.32 11 -1 11 C-1.02688151 9.35425434 -1.04634123 7.70838587 -1.0625 6.0625 C-1.07410156 5.14597656 -1.08570313 4.22945312 -1.09765625 3.28515625 C-1 1 -1 1 0 0 Z " fill="#623103" transform="translate(37,30)"/>
<path d="M0 0 C1.875 2.3125 1.875 2.3125 3 5 C2.6875 7.3125 2.6875 7.3125 2 9 C1.566875 8.21625 1.13375 7.4325 0.6875 6.625 C-0.89220247 3.78301625 -0.89220247 3.78301625 -4 2 C-5.9896995 1.60986284 -7.99019869 1.26797351 -10 1 C-10 0.67 -10 0.34 -10 0 C-6.34060273 -0.94098787 -3.5912646 -1.32309748 0 0 Z " fill="#846F72" transform="translate(67,21)"/>
<path d="M0 0 C0.66 0 1.32 0 2 0 C2.96070434 2.88211302 3.10581883 4.69850044 3.0625 7.6875 C3.05347656 8.49574219 3.04445313 9.30398437 3.03515625 10.13671875 C3.02355469 10.75160156 3.01195312 11.36648437 3 12 C2.67 12 2.34 12 2 12 C2 10.02 2 8.04 2 6 C-0.475 7.485 -0.475 7.485 -3 9 C-2.01 6.03 -1.02 3.06 0 0 Z " fill="#BE8000" transform="translate(54,46)"/>
<path d="M0 0 C2.95409701 1.37154504 5.44008376 2.98863724 8 5 C7.67 5.99 7.34 6.98 7 8 C6.67 7.34 6.34 6.68 6 6 C5.34 8.31 4.68 10.62 4 13 C3.67 13 3.34 13 3 13 C2.67 9.37 2.34 5.74 2 2 C1.34 2 0.68 2 0 2 C0 1.34 0 0.68 0 0 Z " fill="#B37200" transform="translate(44,35)"/>
<path d="M0 0 C2.04241645 3.3904113 2.32629507 6.13201241 2.375 10.0625 C2.40335938 11.10535156 2.43171875 12.14820313 2.4609375 13.22265625 C2 16 2 16 -0.0234375 17.87109375 C-1.00183594 18.42990234 -1.00183594 18.42990234 -2 19 C-2 16 -2 16 0 14 C0.24377883 10.64255888 0.24377883 10.64255888 0.125 6.875 C0.10695312 5.59367187 0.08890625 4.31234375 0.0703125 2.9921875 C0.04710937 2.00476562 0.02390625 1.01734375 0 0 Z " fill="#885B0E" transform="translate(56,44)"/>
<path d="M0 0 C3.80014965 0.54287852 5.53896313 2.11464643 8 5 C8.33 5.99 8.66 6.98 9 8 C5.08158173 6.69386058 2.67359191 5.16870152 0 2 C0 1.34 0 0.68 0 0 Z " fill="#B49667" transform="translate(10,52)"/>
<path d="M0 0 C3 2 3 2 3.75 3.9375 C4 6 4 6 3 9 C0.4375 10.1875 0.4375 10.1875 -2 11 C-1.67 9.88625 -1.34 8.7725 -1 7.625 C0.088643 4.30540283 0.088643 4.30540283 0 2 C0 1.34 0 0.68 0 0 Z " fill="#9C8B8C" transform="translate(68,23)"/>
<path d="M0 0 C0.75 1.6875 0.75 1.6875 1 4 C-0.9375 6.75 -0.9375 6.75 -3 9 C-4.65 8.67 -6.3 8.34 -8 8 C-8 7.67 -8 7.34 -8 7 C-6.35 7 -4.7 7 -3 7 C-2.814375 5.5459375 -2.814375 5.5459375 -2.625 4.0625 C-2.41875 3.051875 -2.2125 2.04125 -2 1 C-1.34 0.67 -0.68 0.34 0 0 Z " fill="#D5CAC8" transform="translate(49,23)"/>
<path d="M0 0 C-1.15173355 2.46800047 -2.04783565 4.04783565 -4 6 C-4.99 6 -5.98 6 -7 6 C-6.75 4.125 -6.75 4.125 -6 2 C-3.85331506 0.61504198 -2.56128588 0 0 0 Z " fill="#512800" transform="translate(47,58)"/>
<path d="M0 0 C0.33 0.66 0.66 1.32 1 2 C2.36125 1.4740625 2.36125 1.4740625 3.75 0.9375 C6.87758436 0.03531221 8.05208081 -0.13381507 11 1 C7.79619983 3.13586678 6.98060033 3.23132175 3.3125 3.125 C2.10013672 3.09792969 2.10013672 3.09792969 0.86328125 3.0703125 C-0.05904297 3.03550781 -0.05904297 3.03550781 -1 3 C-0.67 2.01 -0.34 1.02 0 0 Z " fill="#7D4F08" transform="translate(41,64)"/>
<path d="M0 0 C0.99 0 1.98 0 3 0 C1.52307692 4.67692308 1.52307692 4.67692308 -1.125 6.3125 C-2.053125 6.6528125 -2.053125 6.6528125 -3 7 C-1.125 2.25 -1.125 2.25 0 0 Z " fill="#A96B00" transform="translate(46,51)"/>
<path d="M0 0 C2.64 0.33 5.28 0.66 8 1 C8.33 1.99 8.66 2.98 9 4 C5.17902761 3.46930939 2.93828597 2.50298434 0 0 Z " fill="#9A786B" transform="translate(19,60)"/>
<path d="M0 0 C0.33 0.99 0.66 1.98 1 3 C4.00847418 4.22520264 4.00847418 4.22520264 7 5 C6.67 5.99 6.34 6.98 6 8 C0.125 4.25 0.125 4.25 -1 2 C-0.67 1.34 -0.34 0.68 0 0 Z " fill="#865B1D" transform="translate(47,33)"/>
<path d="M0 0 C1.98 0 3.96 0 6 0 C1.375 4 1.375 4 -2 4 C-1.34 2.68 -0.68 1.36 0 0 Z " fill="#A78554" transform="translate(12,28)"/>
<path d="M0 0 C1.32 0.33 2.64 0.66 4 1 C2.68 1.33 1.36 1.66 0 2 C0 1.34 0 0.68 0 0 Z " fill="#FFFFFF" transform="translate(41,71)"/>
<path d="M0 0 C0.66 0 1.32 0 2 0 C2 0.66 2 1.32 2 2 C1.34 2 0.68 2 0 2 C0 1.34 0 0.68 0 0 Z " fill="#FFFFFF" transform="translate(62,52)"/>
<path d="M0 0 C0.99 1.485 0.99 1.485 2 3 C1.34 3 0.68 3 0 3 C0 2.01 0 1.02 0 0 Z " fill="#FFFFFF" transform="translate(73,27)"/>
<path d="" fill="#FFFFFF" transform="translate(0,0)"/>
<path d="M0 0 C3 1 3 1 3 1 Z " fill="#FFFFFF" transform="translate(15,24)"/>
<path d="M0 0 C3 1 3 1 3 1 Z " fill="#FFFFFF" transform="translate(18,23)"/>
<path d="M0 0 C0.99 0.495 0.99 0.495 2 1 C1.01 1.495 1.01 1.495 0 2 C0 1.34 0 0.68 0 0 Z " fill="#FFFFFF" transform="translate(28,8)"/>
<path d="M0 0 C0.99 0.495 0.99 0.495 2 1 C1.01 1.495 1.01 1.495 0 2 C0 1.34 0 0.68 0 0 Z " fill="#FFFFFF" transform="translate(30,6)"/>
<path d="M0 0 C2 1 2 1 2 1 Z " fill="#FFFFFF" transform="translate(67,37)"/>
<path d="M0 0 C2 1 2 1 2 1 Z " fill="#FFFFFF" transform="translate(10,27)"/>
<path d="M0 0 C2 1 2 1 2 1 Z " fill="#FFFFFF" transform="translate(13,25)"/>
<path d="M0 0 C2 1 2 1 2 1 Z " fill="#FFFFFF" transform="translate(58,16)"/>
<path d="M0 0 C2 1 2 1 2 1 Z " fill="#FFFFFF" transform="translate(37,2)"/>
<path d="" fill="#FFFFFF" transform="translate(0,0)"/>
<path d="" fill="#FFFFFF" transform="translate(0,0)"/>
<path d="" fill="#FFFFFF" transform="translate(0,0)"/>
<path d="" fill="#FFFFFF" transform="translate(0,0)"/>
<path d="" fill="#FFFFFF" transform="translate(0,0)"/>
<path d="" fill="#FFFFFF" transform="translate(0,0)"/>
<path d="" fill="#FFFFFF" transform="translate(0,0)"/>
<path d="" fill="#FFFFFF" transform="translate(0,0)"/>
<path d="" fill="#FFFFFF" transform="translate(0,0)"/>
<path d="" fill="#FFFFFF" transform="translate(0,0)"/>
<path d="" fill="#FFFFFF" transform="translate(0,0)"/>
<path d="" fill="#FFFFFF" transform="translate(0,0)"/>
<path d="" fill="#FFFFFF" transform="translate(0,0)"/>
<path d="" fill="#FFFFFF" transform="translate(0,0)"/>
<path d="" fill="#FFFFFF" transform="translate(0,0)"/>
<path d="" fill="#FFFFFF" transform="translate(0,0)"/>
<path d="" fill="#FFFFFF" transform="translate(0,0)"/>
<path d="" fill="#FFFFFF" transform="translate(0,0)"/>
<path d="" fill="#FFFFFF" transform="translate(0,0)"/>
<path d="" fill="#FFFFFF" transform="translate(0,0)"/>
<path d="" fill="#FFFFFF" transform="translate(0,0)"/>
<path d="" fill="#FFFFFF" transform="translate(0,0)"/>
<path d="" fill="#FFFFFF" transform="translate(0,0)"/>
<path d="" fill="#FFFFFF" transform="translate(0,0)"/>
<path d="" fill="#FFFFFF" transform="translate(0,0)"/>
<path d="" fill="#FFFFFF" transform="translate(0,0)"/>
<path d="" fill="#FFFFFF" transform="translate(0,0)"/>
<path d="" fill="#FFFFFF" transform="translate(0,0)"/>
<path d="" fill="#FFFFFF" transform="translate(0,0)"/>
<path d="" fill="#FFFFFF" transform="translate(0,0)"/>
<path d="" fill="#FFFFFF" transform="translate(0,0)"/>
<path d="" fill="#FFFFFF" transform="translate(0,0)"/>
<path d="" fill="#FFFFFF" transform="translate(0,0)"/>
<path d="" fill="#FFFFFF" transform="translate(0,0)"/>
<path d="" fill="#FFFFFF" transform="translate(0,0)"/>
<path d="" fill="#FFFFFF" transform="translate(0,0)"/>
<path d="" fill="#FFFFFF" transform="translate(0,0)"/>
<path d="" fill="#FFFFFF" transform="translate(0,0)"/>
<path d="" fill="#FFFFFF" transform="translate(0,0)"/>
</svg>
